<svg xmlns="http://www.w3.org/2000/svg" viewBox="0 0 24 24" fill="#ff1616" x="0px" y="0px">
    <path
        d="M8.24964 4.56716C8.48867 4.42889 8.79453 4.51057 8.9328 4.7496C9.07107 4.98863 8.98939 5.29449 8.75036 5.43276C6.5073 6.7303 5 9.15427 5 11.9297C5 14.7051 6.5073 17.1291 8.75036 18.4266C8.98939 18.5649 9.07107 18.8708 8.9328 19.1098C8.79453 19.3488 8.48867 19.4305 8.24964 19.2922C5.71029 17.8233 4 15.0765 4 11.9297C4 8.78287 5.71029 6.03609 8.24964 4.56716Z"
        fill="#ff1616" />
    <path
        d="M13 9.03084C13 7.78633 14.4281 7.08311 15.4146 7.8419L19.2744 10.811C20.055 11.4115 20.055 12.5885 19.2744 13.1889L15.4146 16.158C14.4281 16.9168 13 16.2136 13 14.9691V14.5C13 14.2238 12.7761 14 12.5 14H9.49999C8.67156 14 7.99999 13.3284 7.99999 12.5V11.5C7.99999 10.6715 8.67156 9.99997 9.49999 9.99997H12.5C12.7761 9.99997 13 9.77612 13 9.49997V9.03084Z"
        fill="#ff1616" />
</svg>