<svg xmlns="http://www.w3.org/2000/svg" version="1.1" viewBox="0.0 0.0 100.0 100.0">
    <path
        d="m24.93 47.199c0.070312 0.070312 0.12891 0.14062 0.17969 0.21875 2.1992 2.6797 3.9297 5.2695 5.2695 7.8594l0.42188 0.82812c0.48047 0.92188 1.3281 1.0195 1.6797 1.0195 0.35156 0 1.1992-0.10156 1.6797-1.0195 1.8281-3.5508 4.2617-7.0312 7.6289-10.969 1.8906-2.2188 2.9414-5.0508 2.9414-7.9688 0-1.7109-0.35156-3.3594-1-4.8789-0.011719-0.019531-0.011719-0.03125-0.03125-0.050781-0.039063-0.10156-0.078125-0.21094-0.12891-0.30859-0.011718-0.011719-0.019531-0.03125-0.019531-0.050782-0.64062-1.3086-1.5117-2.5117-2.6016-3.5508-2.3008-2.2109-5.2891-3.4102-8.4688-3.4102-0.17969 0-0.35938 0.011719-0.55078 0.019531-5.8281 0.25-11.281 5.5703-11.66 11.391-0.21875 3.3203 0.85938 6.5 3.0508 8.9688 0.57031 0.64062 1.1094 1.2695 1.6094 1.8984zm4.2695-10.719c0.25-1.3086 1.3203-2.3789 2.6289-2.6289 2.5117-0.46875 4.6406 1.8594 3.8203 4.3789-0.30859 0.96875-1.1016 1.75-2.0703 2.0703-2.5312 0.82031-4.8594-1.3086-4.3789-3.8203z" />
    <path
        d="m21.5 76.328s0.019531 0.03125 0.03125 0.039063c0.050781 0.058593 0.10156 0.12109 0.16016 0.17187 1.5898 1.6406 3.7109 2.5391 5.9883 2.5391h47.719c2.1406 0 4.1484-0.80078 5.7109-2.2695 0.070313-0.058594 0.14844-0.12891 0.21875-0.19922 0.039063-0.039063 0.070313-0.070313 0.10156-0.10938 0.039062-0.03125 0.058593-0.070312 0.089843-0.10156h0.011719c1.6406-1.6406 2.4492-3.9102 2.2188-6.2109l-3.3516-33.371c-0.21875-2.2109-1.3398-4.2812-3.0703-5.6719-1.4883-1.1992-3.3516-1.8594-5.25-1.8594h-23.371c-0.89062 0-1.5117 0.89844-1.1719 1.7188 0.30078 0.73828 0.53906 1.5 0.73047 2.2812 0.30859 1.25 0.46875 2.5508 0.46875 3.8789 0 3.8789-1.3906 7.6289-3.9102 10.57-3.1602 3.6992-5.4219 6.9414-7.1094 10.199-1.0117 1.9688-3.0195 3.1914-5.2305 3.1914s-4.2188-1.2188-5.2305-3.1914l-0.42969-0.82031c-0.53906-1.0391-1.1406-2.0898-1.8398-3.1406-0.48047-0.75-1-1.5-1.5703-2.2617-0.69141-0.92969-2.1719-0.55078-2.2891 0.60937l-1.7695 17.531c-0.23828 2.3594 0.53125 4.7109 2.1406 6.4609zm3.6719-5.4375 46.148-36.941c0.60156-0.48047 1.4297-0.55859 2.1211-0.21094l0.050782 0.019531c1.2812 0.66016 1.4492 2.4102 0.32812 3.3086l-20.199 16.172 24 17.789c1.0391 0.76953 1.0703 2.3281 0.050781 3.1289l-0.039063 0.03125c-0.69922 0.55078-1.6797 0.57031-2.3984 0.039062l-24.84-18.41-22.719 18.199c-0.75 0.60156-1.8281 0.57031-2.5508-0.070313l-0.039062-0.03125c-0.91016-0.82031-0.87109-2.2617 0.089843-3.0195z" />
</svg>