<svg xmlns="http://www.w3.org/2000/svg" version="1.1" fill='gray' viewBox="-5.0 -10.0 110.0 135.0">
    <path
        d="m30.758 60.758c2.3438-2.3438 6.1406-2.3438 8.4844 0s2.3438 6.1406 0 8.4844l-13.758 13.758h7.5156c3.3125 0 6 2.6875 6 6s-2.6875 6-6 6h-15c-7.1797 0-13-5.8203-13-13v-15c0-3.3125 2.6875-6 6-6s6 2.6875 6 6v7.5156z" />
    <path
        d="m60.758 60.758c2.3438-2.3438 6.1406-2.3438 8.4844 0l13.758 13.758v-7.5156c0-3.3125 2.6875-6 6-6s6 2.6875 6 6v15c0 7.1797-5.8203 13-13 13h-15c-3.3125 0-6-2.6875-6-6s2.6875-6 6-6h7.5156l-13.758-13.758c-2.3438-2.3438-2.3438-6.1406 0-8.4844z" />
    <path
        d="m33 5c3.3125 0 6 2.6875 6 6s-2.6875 6-6 6h-7.5156l13.758 13.758c2.3438 2.3438 2.3438 6.1406 0 8.4844s-6.1406 2.3438-8.4844 0l-13.758-13.758v7.5156c0 3.3125-2.6875 6-6 6s-6-2.6875-6-6v-15c0-7.1797 5.8203-13 13-13z" />
    <path
        d="m82 5c7.1797 0 13 5.8203 13 13v15c0 3.3125-2.6875 6-6 6s-6-2.6875-6-6v-7.5156l-13.758 13.758c-2.3438 2.3438-6.1406 2.3438-8.4844 0s-2.3438-6.1406 0-8.4844l13.758-13.758h-7.5156c-3.3125 0-6-2.6875-6-6s2.6875-6 6-6z" />
</svg>