<svg xmlns="http://www.w3.org/2000/svg" version="1.1" fill="gray" viewBox="-5.0 -10.0 110.0 135.0">
 <path d="m34.164 71.113c-1.3516 0-2.6992-0.51562-3.7305-1.5469-2.0625-2.0625-2.0625-5.4023 0-7.4648l31.668-31.668c2.0625-2.0625 5.4023-2.0625 7.4648 0s2.0625 5.4023 0 7.4648l-31.668 31.668c-1.0312 1.0312-2.3828 1.5469-3.7344 1.5469zm19.113-2-7.4961 7.4961c-2.375 2.375-5.3438 4.1914-8.6484 4.7891-5.3008 0.96094-10.48-0.6875-14.16-4.3711-3.6875-3.6836-5.332-8.8711-4.3672-14.176 0.60156-3.3008 2.418-6.2656 4.7891-8.6367l7.4961-7.4961c2.0625-2.0625 2.0625-5.4023 0-7.4648l-0.90625-0.90625c-2.0625-2.0625-5.4023-2.0625-7.4648 0l-11.348 11.348c-4.1445 4.1445-7.2148 9.3594-8.2305 15.129-3.5625 20.211 14.98 37.43 35.449 31.48 4.3086-1.25 8.1562-3.7227 11.328-6.8945 3.3672-3.3711 8.4844-8.4883 11.945-11.945 2.0625-2.0625 2.0469-5.3867-0.015624-7.4492l-0.90625-0.90625c-2.0625-2.0586-5.4023-2.0586-7.4648 0.003906zm-6.5469-38.227 7.4961-7.4961c2.375-2.375 5.3438-4.1914 8.6484-4.7891 5.3008-0.96094 10.48 0.6875 14.16 4.3711 3.6875 3.6836 5.332 8.8711 4.3672 14.176-0.60156 3.3008-2.418 6.2656-4.7891 8.6367l-7.4961 7.4961c-2.0625 2.0625-2.0625 5.4023 0 7.4648l0.90625 0.90625c2.0625 2.0625 5.4023 2.0625 7.4648 0l11.348-11.348c4.1445-4.1445 7.2148-9.3594 8.2305-15.129 3.5625-20.211-14.984-37.43-35.449-31.48-4.3086 1.25-8.1562 3.7227-11.328 6.8945-3.3672 3.3711-8.4844 8.4883-11.945 11.945-2.0625 2.0625-2.0469 5.3867 0.015625 7.4492l0.90625 0.90625c2.0586 2.0586 5.4023 2.0586 7.4648-0.003906z"/>
</svg>